<svg id="Capa_1" data-name="Capa 1" xmlns="http://www.w3.org/2000/svg" viewBox="0 0 332.13 77.15"><defs><style>.cls-1{fill:#f1870e;}.cls-2{fill:#f1860f;}</style></defs><path class="cls-1" d="M297.28,315.44V270.87h11.61a32.21,32.21,0,0,1,5.41.44,12.64,12.64,0,0,1,4.54,1.68,8.48,8.48,0,0,1,3.11,3.52,13.74,13.74,0,0,1,1.13,6,11.32,11.32,0,0,1-.8,4.54A7.11,7.11,0,0,1,320,290a8.34,8.34,0,0,1-3.5,1.49,8.9,8.9,0,0,1,4.35,1.67,8.41,8.41,0,0,1,2.67,3.61,14.67,14.67,0,0,1,.91,5.44,17.6,17.6,0,0,1-.91,6,10.41,10.41,0,0,1-2.61,4.1,10.6,10.6,0,0,1-4.21,2.37,19.71,19.71,0,0,1-5.75.77Zm9.84-26.74h1.93a6.74,6.74,0,0,0,3.41-.69,3.44,3.44,0,0,0,1.57-2,10.94,10.94,0,0,0,.41-3.19,6.21,6.21,0,0,0-.63-2.94,4.11,4.11,0,0,0-1.87-1.79,7.12,7.12,0,0,0-3.11-.6h-1.71Zm0,19.86h2.1c2.16,0,3.66-.55,4.48-1.65a8,8,0,0,0,1.24-4.84,12.07,12.07,0,0,0-.55-4,3.91,3.91,0,0,0-1.82-2.17,7.14,7.14,0,0,0-3.41-.69h-2Z" transform="translate(-162.83 -267.54)"/><path class="cls-1" d="M343.6,316.1a16,16,0,0,1-8-1.68,9,9,0,0,1-4.05-4.89,23.58,23.58,0,0,1-1.15-7.9V270.87h9.74v32.25a17.09,17.09,0,0,0,.22,2.75,4.41,4.41,0,0,0,1,2.25,3.43,3.43,0,0,0,4.59,0,4.45,4.45,0,0,0,.91-2.25,19.66,19.66,0,0,0,.19-2.75V270.87h9.8v30.76a23,23,0,0,1-1.19,7.9,9.1,9.1,0,0,1-4,4.89A15.84,15.84,0,0,1,343.6,316.1Z" transform="translate(-162.83 -267.54)"/><path class="cls-1" d="M364.18,315.44V270.87h19.26v6.66H374v11.23h8.2v6.87H374v19.81Z" transform="translate(-162.83 -267.54)"/><path class="cls-1" d="M389.16,315.44V270.87h19.26v6.66H399v11.23h8.2v6.87H399v19.81Z" transform="translate(-162.83 -267.54)"/><path class="cls-1" d="M410.4,315.44l8.42-44.57H430l8.31,44.57h-9.08L427.78,306h-6.54l-1.54,9.41Zm11.72-15.3h4.73l-2.37-17.38Z" transform="translate(-162.83 -267.54)"/><path class="cls-1" d="M444,315.44V270.87h9.85v37.91H464v6.66Z" transform="translate(-162.83 -267.54)"/><path class="cls-1" d="M481.48,316.1a15.34,15.34,0,0,1-7.92-1.76,9.83,9.83,0,0,1-4.18-5.06,22.08,22.08,0,0,1-1.27-7.87V284.85a21.82,21.82,0,0,1,1.27-7.87,9.76,9.76,0,0,1,4.18-5,15.56,15.56,0,0,1,7.92-1.73,15.82,15.82,0,0,1,8,1.73,9.77,9.77,0,0,1,4.21,5,21.83,21.83,0,0,1,1.26,7.87v16.56a22.09,22.09,0,0,1-1.26,7.87,9.83,9.83,0,0,1-4.21,5.06A15.6,15.6,0,0,1,481.48,316.1Zm0-7a2.93,2.93,0,0,0,2.26-.77,3.74,3.74,0,0,0,.93-2,13.51,13.51,0,0,0,.22-2.47V282.43a13.48,13.48,0,0,0-.22-2.51,3.75,3.75,0,0,0-.93-1.95,3,3,0,0,0-2.26-.77,2.78,2.78,0,0,0-2.14.77,3.84,3.84,0,0,0-.94,1.95,14.38,14.38,0,0,0-.22,2.51v21.46a15.53,15.53,0,0,0,.2,2.47,3.76,3.76,0,0,0,.87,2A2.85,2.85,0,0,0,481.48,309.11Z" transform="translate(-162.83 -267.54)"/><path class="cls-1" d="M307.4,342.6a9.1,9.1,0,0,1-3.31-.58,7.75,7.75,0,0,1-4.35-4.18,8.44,8.44,0,0,1,0-6.35,7.9,7.9,0,0,1,1.74-2.52,8.05,8.05,0,0,1,2.63-1.66,9.73,9.73,0,0,1,6.7,0,6.69,6.69,0,0,1,2.6,1.8L312,330.49a6.14,6.14,0,0,0-2.07-1.36,7.15,7.15,0,0,0-4.91,0,6.05,6.05,0,0,0-2,1.24,5.71,5.71,0,0,0-1.29,1.9,6.49,6.49,0,0,0,0,4.75,5.82,5.82,0,0,0,1.29,1.9,6,6,0,0,0,2,1.26,6.86,6.86,0,0,0,2.47.44,7.33,7.33,0,0,0,2.38-.39,5.86,5.86,0,0,0,2.12-1.3l1.26,1.69a8,8,0,0,1-2.69,1.48A10.35,10.35,0,0,1,307.4,342.6Zm3.74-2.26v-5.77h2.13v6.06Z" transform="translate(-162.83 -267.54)"/><path class="cls-1" d="M317.51,342.43V326.9h6.06a8.48,8.48,0,0,1,3.48.64,4.93,4.93,0,0,1,2.22,1.87,5.85,5.85,0,0,1,0,5.8,5,5,0,0,1-2.22,1.85,8.48,8.48,0,0,1-3.48.64h-4.84l1-1v5.75Zm2.22-5.53-1-1.08h4.77a5,5,0,0,0,3.23-.92,3.21,3.21,0,0,0,1.1-2.59,3.16,3.16,0,0,0-1.1-2.57,5,5,0,0,0-3.23-.91h-4.77l1-1.11Zm8.16,5.53-3.95-5.64h2.38l4,5.64Z" transform="translate(-162.83 -267.54)"/><path class="cls-1" d="M340.07,342.6a6.48,6.48,0,0,1-4.81-1.75,6.93,6.93,0,0,1-1.76-5.12V326.9h2.22v8.74a5.35,5.35,0,0,0,1.14,3.79,5,5,0,0,0,6.48,0,5.35,5.35,0,0,0,1.14-3.79V326.9h2.16v8.83a6.92,6.92,0,0,1-1.75,5.12A6.48,6.48,0,0,1,340.07,342.6Zm-1.64-17,3-2.88h2.71l-3.73,2.88Z" transform="translate(-162.83 -267.54)"/><path class="cls-1" d="M348.5,342.43l7-15.53h2.2l7,15.53h-2.33l-6.28-14.29h.89l-6.28,14.29Zm3-3.89.6-1.77h8.74l.65,1.77Z" transform="translate(-162.83 -267.54)"/><path class="cls-1" d="M373.05,342.43V326.9h6.55a9.55,9.55,0,0,1,4.38,1,7.34,7.34,0,0,1,2.95,2.73,8.37,8.37,0,0,1,0,8.12,7.21,7.21,0,0,1-2.95,2.73,9.42,9.42,0,0,1-4.38,1Zm2.22-1.93h4.2a7.21,7.21,0,0,0,3.33-.73,5.38,5.38,0,0,0,2.19-2.06,6.37,6.37,0,0,0,0-6.11,5.4,5.4,0,0,0-2.19-2,7.08,7.08,0,0,0-3.33-.73h-4.2Z" transform="translate(-162.83 -267.54)"/><path class="cls-1" d="M393.6,340.5h9v1.93H391.38V326.9h11v1.93H393.6Zm-.2-6.9h8v1.88h-8Z" transform="translate(-162.83 -267.54)"/><path class="cls-1" d="M412.21,342.43V326.9H414l7,11.73h-1l6.88-11.73h1.82l0,15.53H426.6l0-12.18h.51L421,340.54h-1l-6.17-10.29h.56v12.18Z" transform="translate(-162.83 -267.54)"/><path class="cls-1" d="M440.4,342.6a8.86,8.86,0,0,1-3.29-.59,7.8,7.8,0,0,1-2.63-1.68,8.11,8.11,0,0,1-1.73-8.82,7.57,7.57,0,0,1,1.73-2.51,7.85,7.85,0,0,1,2.62-1.68,8.81,8.81,0,0,1,3.3-.6,9,9,0,0,1,3.28.59A7.81,7.81,0,0,1,446.3,329,7.62,7.62,0,0,1,448,331.5a8.54,8.54,0,0,1,0,6.34,7.54,7.54,0,0,1-1.72,2.51,7.68,7.68,0,0,1-2.62,1.67A9,9,0,0,1,440.4,342.6Zm0-2a6.54,6.54,0,0,0,2.41-.44,5.74,5.74,0,0,0,1.9-1.26A6,6,0,0,0,446,337a6.19,6.19,0,0,0,.45-2.38,5.89,5.89,0,0,0-1.72-4.26,5.74,5.74,0,0,0-1.9-1.26,6.34,6.34,0,0,0-2.41-.44,6.27,6.27,0,0,0-2.39.44,5.78,5.78,0,0,0-1.91,1.26,5.84,5.84,0,0,0-1.28,1.9,6.09,6.09,0,0,0-.45,2.36,6.19,6.19,0,0,0,.45,2.38,5.7,5.7,0,0,0,1.28,1.89,5.78,5.78,0,0,0,1.91,1.26A6.47,6.47,0,0,0,440.38,340.63Z" transform="translate(-162.83 -267.54)"/><path class="cls-1" d="M454.89,342.43v-13.6h-5.33V326.9h12.85v1.93h-5.33v13.6Z" transform="translate(-162.83 -267.54)"/><path class="cls-1" d="M471.61,342.6a8.86,8.86,0,0,1-3.29-.59,7.8,7.8,0,0,1-2.63-1.68,8.11,8.11,0,0,1-1.73-8.82,7.57,7.57,0,0,1,1.73-2.51,7.85,7.85,0,0,1,2.62-1.68,8.81,8.81,0,0,1,3.3-.6,9,9,0,0,1,3.28.59,7.81,7.81,0,0,1,2.62,1.66,7.62,7.62,0,0,1,1.72,2.53,8.54,8.54,0,0,1,0,6.34,7.54,7.54,0,0,1-1.72,2.51,7.68,7.68,0,0,1-2.62,1.67A9,9,0,0,1,471.61,342.6Zm0-2a6.54,6.54,0,0,0,2.41-.44,5.74,5.74,0,0,0,1.9-1.26,6,6,0,0,0,1.27-1.89,6.19,6.19,0,0,0,.45-2.38,5.89,5.89,0,0,0-1.72-4.26,5.74,5.74,0,0,0-1.9-1.26,6.34,6.34,0,0,0-2.41-.44,6.18,6.18,0,0,0-2.38.44,5.72,5.72,0,0,0-1.92,1.26,5.84,5.84,0,0,0-1.28,1.9,6.09,6.09,0,0,0-.45,2.36A6.19,6.19,0,0,0,466,337a5.84,5.84,0,0,0,3.2,3.15A6.38,6.38,0,0,0,471.59,340.63Z" transform="translate(-162.83 -267.54)"/><path class="cls-1" d="M487.76,342.6a10.65,10.65,0,0,1-3.39-.54,6.86,6.86,0,0,1-2.55-1.41l.82-1.73a7.09,7.09,0,0,0,2.26,1.29,8.17,8.17,0,0,0,2.86.51,6.46,6.46,0,0,0,2.2-.31,2.6,2.6,0,0,0,1.24-.86,2.06,2.06,0,0,0,.4-1.23,1.69,1.69,0,0,0-.52-1.28,3.81,3.81,0,0,0-1.36-.79,14.9,14.9,0,0,0-1.83-.52c-.66-.15-1.33-.32-2-.52a8.77,8.77,0,0,1-1.84-.77,3.77,3.77,0,0,1-1.35-1.25,3.68,3.68,0,0,1-.51-2,4,4,0,0,1,.64-2.21,4.42,4.42,0,0,1,1.95-1.62,8,8,0,0,1,3.36-.61,10.23,10.23,0,0,1,2.68.36,7.17,7.17,0,0,1,2.31,1l-.73,1.77a7.28,7.28,0,0,0-2.11-1,8.25,8.25,0,0,0-2.15-.3,6,6,0,0,0-2.15.33,2.61,2.61,0,0,0-1.24.89,2.16,2.16,0,0,0-.38,1.24,1.7,1.7,0,0,0,.52,1.31,4,4,0,0,0,1.35.78c.56.19,1.17.36,1.83.52s1.34.33,2,.52a8.65,8.65,0,0,1,1.84.75,3.89,3.89,0,0,1,1.34,1.24,3.6,3.6,0,0,1,.51,2,4,4,0,0,1-.64,2.19,4.4,4.4,0,0,1-2,1.61A8.11,8.11,0,0,1,487.76,342.6Z" transform="translate(-162.83 -267.54)"/><path class="cls-2" d="M221,319.38l0,0-.9-.33-1.23-.47-1.37-.57-1.37-.6-.67-.32a58.48,58.48,0,0,1-5.26-2.8c-1.73-1.05-3.41-2.17-5-3.33l-.11-.07-.25.29.13.09,2.59,1.83c3.25,2.29,5.82,4.1,7.28,5.21a12.38,12.38,0,0,0,2.4,1.3c.46.2.94.42,1.39.66a3.13,3.13,0,0,0,1.42.38,2.15,2.15,0,0,0,.43,0c.21,0,.59-.11.72-.44A.8.8,0,0,0,221,319.38Z" transform="translate(-162.83 -267.54)"/><path class="cls-2" d="M250.66,320.17l-.1-.06c-.11-.07-.13-.06-.65.07l-.38.1c-1.11.24-3.24.66-5.4,1.07a52.48,52.48,0,0,1-5.61.51,50.25,50.25,0,0,1-5.06-.07h-.12l-.09.08a.67.67,0,0,0-.25.65c.09.39.62.47,1,.52a12.58,12.58,0,0,0,1.7.15h.27c1.57-.15,2-.17,2.17-.17a2.7,2.7,0,0,0,.5-.07c1.12-.19,3.38-.62,5.62-1.05a48.1,48.1,0,0,0,5.41-1.07c.94-.2,1-.25,1-.32l.07-.1Z" transform="translate(-162.83 -267.54)"/><path class="cls-2" d="M232,290.93a7.52,7.52,0,0,0,2-5.28c-.19-4.55-5.18-7.6-7.34-8.54,1.05,1.15,2.65,3,2.06,4.68a3,3,0,0,1-1,1.28,1.89,1.89,0,0,0-.67.82,7.43,7.43,0,0,1,2.68,3,7.71,7.71,0,0,1,.42,5.52h0a6.18,6.18,0,0,0,.66-.41A7.11,7.11,0,0,0,232,290.93Z" transform="translate(-162.83 -267.54)"/><path class="cls-2" d="M200.24,283c-.86.08-1.68.15-2.11-.46-.68-.94.35-2.33,1.44-3.79.63-.85,1.58-2.13,1.35-2.48-.11-.19-.62-.35-1.51-.35a10.41,10.41,0,0,0-1.62.14c-3.14.53-6.8,2.35-7.42,5.11-.43,1.9.7,3.67,1.9,5.55s4.28,6.14,7.4,6.51h.06a3.55,3.55,0,0,0,1.42-.13c2.32-.73,4-3.91,3.63-6.67a4.41,4.41,0,0,0-1.51-2.94A4.32,4.32,0,0,0,200.24,283Z" transform="translate(-162.83 -267.54)"/><path class="cls-2" d="M184.1,319.88a8.9,8.9,0,0,1,2.13,3.19,7.27,7.27,0,0,1,.44,1.91,5.56,5.56,0,0,1-.21,2,20,20,0,0,1-1.61,3.54c-.6,1.13-1.21,2.25-1.8,3.37s-1.17,2.25-1.74,3.38-1.11,2.28-1.72,3.43a11.41,11.41,0,0,1-1.07,1.73,5.27,5.27,0,0,1-1.7,1.47,7.22,7.22,0,0,1-2.06.68,7.8,7.8,0,0,1-2.16.08,5.11,5.11,0,0,1-1.12-.24,3.4,3.4,0,0,1-1.14-.6c-.09-.07-.18-.17-.27-.25a1.83,1.83,0,0,1-.24-.31,2.09,2.09,0,0,1-.33-.73,3.49,3.49,0,0,1,0-1.36,7.07,7.07,0,0,1,.78-2.07,4.79,4.79,0,0,1,.25-.45l.12-.21,0,0,0,0c-.55-1.25.25,2.38,1.81.93l0-.08h0l0,0c-.1.31-.23.65-.37,1a8,8,0,0,1-1.14,1.88,5.53,5.53,0,0,1-.85.82,4.42,4.42,0,0,1-1.08.61,5.72,5.72,0,0,1-2.32.38,6.49,6.49,0,0,1-1.15-.16,4.73,4.73,0,0,1-1.15-.43,3.12,3.12,0,0,1-1.12-.92,1.25,1.25,0,0,1-.12-.17c0-.06-.07-.13-.11-.2s-.06-.13-.09-.21l0-.13,0-.14a1.24,1.24,0,0,1,0-.33v-.17l0-.14,0-.14a.45.45,0,0,1,0-.11c0-.07,0-.15.06-.21a4.52,4.52,0,0,1,.28-.58c.09-.17.19-.32.28-.47s.37-.56.56-.83c.74-1.07,1.5-2.09,2.26-3.12.38-.52.76-1,1.17-1.55.21-.26.42-.52.7-.82a3.19,3.19,0,0,1,.56-.47,2.08,2.08,0,0,1,.35-.2l.3-.12a5.42,5.42,0,0,1,2.39-.31,8.39,8.39,0,0,1,2.16.48,11.66,11.66,0,0,1,1.93.9c.16.09.31.19.47.3a3.07,3.07,0,0,1,.28.2l.09.08a2.66,2.66,0,0,1,.18.2c0,.22.24-.19.22,1-.61,1.15-.89.73-.92.87a.9.9,0,0,1-.28,0l-.38,0-.29,0a4.51,4.51,0,0,1-.53-.09,10.87,10.87,0,0,1-2-.62,6.93,6.93,0,0,1-1-.51,4.35,4.35,0,0,1-1-.82,2.75,2.75,0,0,1-.69-1.43,2.6,2.6,0,0,1,0-.88,2,2,0,0,1,.12-.39,1.07,1.07,0,0,1,.07-.19l.08-.16a4.36,4.36,0,0,1,.75-1,10.62,10.62,0,0,1,.78-.74c1.05-.88,2.07-1.59,3-2.37a13.91,13.91,0,0,0,2.45-2.53,8.86,8.86,0,0,0,.82-1.47,6.21,6.21,0,0,0,.45-1.58,6.35,6.35,0,0,0,.05-1.63,9.53,9.53,0,0,0-.38-1.67c-.18-.57-.4-1.15-.61-1.78a9.73,9.73,0,0,1-.51-2,5.93,5.93,0,0,1,.11-2.22,7.09,7.09,0,0,1,.82-2,6.18,6.18,0,0,1,1.48-1.61c.54-.43,1.06-.76,1.51-1.13a7.41,7.41,0,0,0,1.19-1.25l.26-.36.24-.38c.08-.12.15-.25.22-.38s.15-.26.21-.4a7.51,7.51,0,0,0,.61-1.66,12.5,12.5,0,0,0,.31-1.8c.07-.62.14-1.26.23-1.91a18.1,18.1,0,0,1,.38-1.92,17.41,17.41,0,0,1,1.36-3.65,22.46,22.46,0,0,1,4.64-6.1,25.91,25.91,0,0,0-2.28,3c-.35.53-.66,1.08-1,1.63a18.75,18.75,0,0,0-.8,1.7,18,18,0,0,0-1.07,3.58,28.24,28.24,0,0,0-.35,3.73,12.4,12.4,0,0,1-.23,2,8.83,8.83,0,0,1-.61,2c-.06.16-.14.31-.21.46s-.15.31-.24.45l-.25.45-.28.43a8.42,8.42,0,0,1-1.35,1.57c-.51.47-1.05.86-1.5,1.23a4.29,4.29,0,0,0-1,1.23,5.15,5.15,0,0,0-.56,1.52,4.14,4.14,0,0,0,0,1.57,22.54,22.54,0,0,0,1.18,3.46,11.71,11.71,0,0,1,.51,2l0,.54,0,.27a2.61,2.61,0,0,1,0,.28V321c0,.18-.05.36-.07.54a9.09,9.09,0,0,1-1.55,4,15.66,15.66,0,0,1-2.77,3c-1,.87-2.06,1.63-2.95,2.4-.22.2-.43.39-.6.58a2.17,2.17,0,0,0-.37.5c-.07.14-.06.19-.05.22a.52.52,0,0,0,.14.25,3.41,3.41,0,0,0,1.17.72,8.56,8.56,0,0,0,1.61.48l.41.07.19,0h.09l-.16,0c0,.14-.27-.29-.87.84,0,1.21.2.78.19,1l.1.11h0l-.12-.08-.33-.21a9.25,9.25,0,0,0-1.53-.71,4.42,4.42,0,0,0-2.92-.2l-.14.05-.07,0a.82.82,0,0,0-.16.15c-.16.16-.36.4-.55.63l-1.14,1.49c-.76,1-1.53,2-2.25,3q-.27.38-.51.75c-.08.12-.16.24-.22.35a2.41,2.41,0,0,0-.14.27v0h0v-.09s0-.06,0-.09l0-.05h0l0,0a.83.83,0,0,0,.35.28,3.28,3.28,0,0,0,1.36.36,3.36,3.36,0,0,0,1.43-.19,3.88,3.88,0,0,0,2-2.16c.12-.26.22-.51.33-.81l0-.07,0-.05.07-.14c1.57-1.47,2.37,2.19,1.8.95l0,.08,0,.07-.13.21-.22.38a5.61,5.61,0,0,0-.61,1.47,1.45,1.45,0,0,0,0,.53c0,.06,0,.1.06.14a.15.15,0,0,0,.05.07.44.44,0,0,0,.07.08,1.85,1.85,0,0,0,.53.3,4,4,0,0,0,.74.18,5.86,5.86,0,0,0,3.21-.45,3.61,3.61,0,0,0,1.21-1,13,13,0,0,0,1-1.47c.63-1.07,1.24-2.2,1.87-3.31s1.27-2.22,1.93-3.32,1.34-2.17,2-3.25a21.5,21.5,0,0,0,1.78-3.29,5.09,5.09,0,0,0,.33-1.77,7.09,7.09,0,0,0-.27-1.82A9.11,9.11,0,0,0,184.1,319.88Z" transform="translate(-162.83 -267.54)"/><path class="cls-2" d="M205.18,303.13a14,14,0,0,1-1.07,3.09,10.37,10.37,0,0,1-1.93,2.78,7.3,7.3,0,0,1-1.39,1.13,6.71,6.71,0,0,1-1.7.77,7.92,7.92,0,0,1-1.82.29c-.58,0-1.13,0-1.6,0a3.59,3.59,0,0,0-1.17.16,2.33,2.33,0,0,0-.45.22,2.64,2.64,0,0,0-.41.32,3.54,3.54,0,0,0-.61,1l-.32.74-.38.76a10.51,10.51,0,0,1-4.77,4.54,21.53,21.53,0,0,0,1.81-2.58,14.4,14.4,0,0,0,1.26-2.71c.16-.47.29-.94.45-1.47a5.82,5.82,0,0,1,.32-.86,4.66,4.66,0,0,1,.56-.91,4.09,4.09,0,0,1,.78-.72,4.14,4.14,0,0,1,.94-.53,5.94,5.94,0,0,1,1.95-.34,14.68,14.68,0,0,0,2.91-.1,6.24,6.24,0,0,0,2.43-1.13,13.79,13.79,0,0,0,2.18-2C203.85,304.81,204.49,304,205.18,303.13Z" transform="translate(-162.83 -267.54)"/><path class="cls-2" d="M224.93,312a13.66,13.66,0,0,0-.39,2.43,9.61,9.61,0,0,0,0,1.2,11.49,11.49,0,0,0,.09,1.18,7.27,7.27,0,0,0,.27,1.14,7.27,7.27,0,0,1,.26,1.12l.15,1.18c0,.41.07.84.06,1.31l-.14.08a3.82,3.82,0,0,1-1-.95,5,5,0,0,1-.65-1.17,4,4,0,0,1-.28-1.32c0-.45,0-.89,0-1.34a10.27,10.27,0,0,1,1.49-4.92Z" transform="translate(-162.83 -267.54)"/><path class="cls-2" d="M240.35,293.5a13.34,13.34,0,0,1,1.73,5.63,7.06,7.06,0,0,1-.52,3,6.4,6.4,0,0,1-.77,1.37,10.37,10.37,0,0,1-1,1.16c-.34.35-.68.68-.95,1a5.37,5.37,0,0,0-.7,1.1,6.55,6.55,0,0,0-.4,1.23,4.74,4.74,0,0,0-.08,1.24,7.56,7.56,0,0,0,.26,1.29,7.76,7.76,0,0,1,.31,1.58,5.41,5.41,0,0,1-.16,1.71,7.58,7.58,0,0,1-.25.81c0,.14-.12.27-.17.4l-.1.2-.11.19a6.34,6.34,0,0,1-.51.73l-.3.32-.3.29c-.41.36-.82.67-1.2,1a12.29,12.29,0,0,0-2,1.84l-.42.53-.38.55a8.92,8.92,0,0,0-.67,1.14,6.75,6.75,0,0,0-.47,1.18c-.13.42-.25.91-.41,1.42a13.83,13.83,0,0,1-1.3,2.87,18.76,18.76,0,0,1-1.78,2.57,14.65,14.65,0,0,1-1.08,1.13,8.32,8.32,0,0,0-.88.95,6,6,0,0,0-.64,1.05c-.09.19-.19.39-.27.59l-.13.31-.11.31a15.85,15.85,0,0,0-.63,2.65,8.79,8.79,0,0,1-.43,1.63,6.11,6.11,0,0,1-.92,1.56,7.37,7.37,0,0,1-1.25,1.19,8.63,8.63,0,0,1-1.45.88,5.8,5.8,0,0,1-1.75.54,3,3,0,0,1-.61,0l-.19,0-.22-.06-.25-.1-.15-.09-.15-.11a1.62,1.62,0,0,1-.43-.63,2,2,0,0,1-.07-.29v-.24a2.33,2.33,0,0,1,.09-.66,4.71,4.71,0,0,1,.32-.86,7.83,7.83,0,0,1,.35-.71l.15-.29h0s0,0,0,0h0a.25.25,0,0,1,0,.07.81.81,0,0,0,0,.21,1.13,1.13,0,0,0,.62,1c.91.26,1.2-.2,1.15-.14a1.27,1.27,0,0,0,.14-.14l0-.05h0s0,0,0,0v0l-.18.31c-.06.12-.13.23-.2.35a6.13,6.13,0,0,1-1.12,1.37,3.65,3.65,0,0,1-.84.57,3.18,3.18,0,0,1-1,.3,3.67,3.67,0,0,1-2-.36,2.61,2.61,0,0,1-.92-.75l-.1-.14-.09-.16a2.21,2.21,0,0,1-.14-.37,1.51,1.51,0,0,1-.05-.47v-.12s0-.06,0-.09l0-.2.1-.29.12-.23.11-.19.1-.18.43-.64.83-1.2.8-1.2c.28-.41.51-.79.86-1.27a3.38,3.38,0,0,1,.69-.67,3.54,3.54,0,0,1,.8-.45,4.88,4.88,0,0,1,1.68-.36,7.2,7.2,0,0,1,.8,0h.24s0,0,0,0h-.06a.51.51,0,0,0-.24.11c-.61.21-.14,1.29,0,1.21a.51.51,0,0,0,.22.09h-.18a4.78,4.78,0,0,1-1.68-.27,2.23,2.23,0,0,1-.85-.58,2.09,2.09,0,0,1-.47-.94,3.5,3.5,0,0,1,0-.9,4.28,4.28,0,0,1,.13-.81,13.53,13.53,0,0,1,1.1-2.83c.45-.88.93-1.74,1.43-2.58a12.59,12.59,0,0,1,1.8-2.36,13.44,13.44,0,0,1,2.28-1.86,13.36,13.36,0,0,0-3.5,4.53c-.41.88-.82,1.76-1.18,2.65a12.91,12.91,0,0,0-.8,2.67,2.92,2.92,0,0,0,0,1.19.73.73,0,0,0,.19.35,1,1,0,0,0,.37.2,3.71,3.71,0,0,0,1.2.09H220l.09,0a.61.61,0,0,1,.27.09c.19-.06.66,1,0,1.25a1,1,0,0,1-.29.13l-.1,0h-.4c-.23,0-.45,0-.66,0a3.74,3.74,0,0,0-1.15.31,2.31,2.31,0,0,0-.45.29,1.65,1.65,0,0,0-.33.36c-.22.32-.47.78-.73,1.19l-.76,1.26-.77,1.24-.36.6a1.54,1.54,0,0,0-.19.42.25.25,0,0,0,0-.16c0-.05,0,0,0,0a.79.79,0,0,0,.21.14,1.57,1.57,0,0,0,.86.11,1.1,1.1,0,0,0,.35-.11A1.94,1.94,0,0,0,216,340a4,4,0,0,0,.69-.91l.16-.28.17-.33,0-.06,0-.07,0-.05.06-.08a1.45,1.45,0,0,1,.17-.18s.27-.42,1.19-.16a1.15,1.15,0,0,1,.63,1.05.67.67,0,0,1,0,.25.29.29,0,0,1,0,.11l0,.06,0,.09,0,.06c-.07.15-.12.26-.18.37s-.2.41-.28.61a4,4,0,0,0-.18.5c0,.06,0,.11,0,.06h0s0,0,0,0a.52.52,0,0,0,0-.11.7.7,0,0,0-.09-.17,1.15,1.15,0,0,0-.14-.17l-.08-.05-.06,0-.09,0h.06a3.92,3.92,0,0,0,1-.35,5.62,5.62,0,0,0,1.88-1.48,3.45,3.45,0,0,0,.55-.94,7.43,7.43,0,0,0,.31-1.2,16.59,16.59,0,0,1,.71-3l.14-.38.15-.37c.1-.24.22-.49.34-.73a8.43,8.43,0,0,1,.89-1.43,10.74,10.74,0,0,1,1.1-1.19c.35-.33.66-.64.95-1a15.65,15.65,0,0,0,1.57-2.21,12.63,12.63,0,0,0,1.15-2.41c.15-.42.27-.87.43-1.38a10.52,10.52,0,0,1,.64-1.51c.13-.25.27-.47.41-.7s.29-.45.44-.66l.47-.63.51-.6a13.41,13.41,0,0,1,2.36-2.06c.41-.29.79-.56,1.12-.82a3.79,3.79,0,0,0,.8-.86l.08-.12.06-.13c.05-.09.1-.17.14-.26a5.66,5.66,0,0,0,.2-.58,3.39,3.39,0,0,0,.17-1.17,7.42,7.42,0,0,0-.19-1.3,8.36,8.36,0,0,1-.22-1.58,6.1,6.1,0,0,1,.22-1.66,7.46,7.46,0,0,1,.6-1.5,6.55,6.55,0,0,1,.95-1.31,15.1,15.1,0,0,1,1.11-1,6.23,6.23,0,0,0,2.44-4.72,10.81,10.81,0,0,0-.25-2.83A19.43,19.43,0,0,0,240.35,293.5Z" transform="translate(-162.83 -267.54)"/><path class="cls-2" d="M202.53,275.63a19.26,19.26,0,0,1,2.24-3.43,15,15,0,0,1,3-2.79,11.79,11.79,0,0,1,3.82-1.64,9.77,9.77,0,0,1,2.09-.23,17.86,17.86,0,0,1,2.08.15,57.92,57.92,0,0,1,8.11,1.53,26.18,26.18,0,0,1,7.62,3.36,15,15,0,0,1,1.69,1.28,14.71,14.71,0,0,1,2.79,3.23c.38.61.7,1.23,1,1.82.65,1.19,1.34,2.34,2.08,3.46s1.52,2.24,2.34,3.3a30.68,30.68,0,0,0,5.61,5.66c1.05.82,2.16,1.58,3.29,2.31s2.31,1.46,3.46,2.17,2.31,1.41,3.48,2a19.53,19.53,0,0,0,3.62,1.48,25.91,25.91,0,0,0,7.77,1,13.75,13.75,0,0,0,7.23-2,10.47,10.47,0,0,0,2.66-2.57,9.93,9.93,0,0,0,1.63-3.27,3.12,3.12,0,0,0,.09-1.49,1.06,1.06,0,0,0-.21-.44,1.1,1.1,0,0,0-.42-.29,5.08,5.08,0,0,0-.81-.27,9.12,9.12,0,0,1-1.14-.39,3.14,3.14,0,0,1-1.24-1,2.81,2.81,0,0,1-.39-.72,3,3,0,0,1-.2-.75,4.1,4.1,0,0,1,.07-1.41,6.37,6.37,0,0,1,.38-1.19,10.31,10.31,0,0,1,1.17-2,12,12,0,0,1,1.51-1.69,11.35,11.35,0,0,1,1.82-1.36,12.75,12.75,0,0,1,2-1,10,10,0,0,1,2.25-.57,6.13,6.13,0,0,1,1.29,0,3,3,0,0,1,.77.18,2.19,2.19,0,0,1,.89.6,1.82,1.82,0,0,1,.35.57,2.12,2.12,0,0,1,.12.62,2.68,2.68,0,0,1-.15.91,7.06,7.06,0,0,1-.54,1.13c-.36.63-.71,1.18-1,1.72a4.15,4.15,0,0,0-.47,1.5,1.93,1.93,0,0,0,.35,1.23,7.91,7.91,0,0,0,.54.69,5.09,5.09,0,0,1,.76,1,2.34,2.34,0,0,1,.18.45,1.18,1.18,0,0,1,.06.27l0,.14v.16a1.51,1.51,0,0,1,0,.3c0,.1,0,.19-.06.29a2.56,2.56,0,0,1-.12.32,2.47,2.47,0,0,1-.16.26,3.14,3.14,0,0,1-.55.58c-.16.14-.3.25-.45.36l-.84.64c-.29.21-.61.43-.93.62l-.17.11s0,0,0,0,0,0,0,0,0,0,0,0a1.16,1.16,0,0,0,0,.46c.05.49.26,1.16.42,1.88a8.05,8.05,0,0,1,.18,1.16,4.36,4.36,0,0,1,0,.63c0,.21,0,.43-.05.65a6.35,6.35,0,0,1-.83,2.34,11.59,11.59,0,0,1-3.11,3.3c-.29.22-.56.42-.88.63l-.48.31-.49.27-.24.14-.26.12-.5.25c-.35.14-.69.28-1,.4a17.29,17.29,0,0,1-4.27.89,35.44,35.44,0,0,1-4.23.1c-.71,0-1.41,0-2.11-.11l-2-.18a6.15,6.15,0,0,0-1.68,0,.91.91,0,0,0-.36.18l-.07.09a.47.47,0,0,0,0,.15c0,.23,0,.58,0,.92s0,.7,0,1.05c0,.71,0,1.41-.08,2.11s-.11,1.42-.22,2.13c-.05.35-.11.71-.13.94a1.29,1.29,0,0,0,0,.28,1.73,1.73,0,0,0,.08.35,2.66,2.66,0,0,0,.78,1.27c.39.38,1,.76,1.53,1.24a7.49,7.49,0,0,1,1.58,1.73,7.21,7.21,0,0,1,.58,1.07,4.56,4.56,0,0,1,.32,1.27c.07.81,0,1.46.06,2.14s0,1.34.06,2c.06,1.34.17,2.68.34,4q.12,1,.27,2c.1.67.21,1.35.29,2.07a10,10,0,0,1,0,2.25,9.8,9.8,0,0,1-.58,2.19,9.07,9.07,0,0,1-1,2,6.62,6.62,0,0,1-1.63,1.67,5.37,5.37,0,0,1-1,.58A6.62,6.62,0,0,1,263,342a5,5,0,0,1-.62.1,2.4,2.4,0,0,1-.75,0l-.23-.06a1.06,1.06,0,0,1-.25-.11,1.33,1.33,0,0,1-.48-.44,1.44,1.44,0,0,1-.21-.56,2.32,2.32,0,0,1,0-.45,4.08,4.08,0,0,1,.36-1.23,3.85,3.85,0,0,1,.24-.5l.23-.45s0-.08,0,0c-1.07-.26,1.41,1.37,1.36.71l0-.06-.1.19c-.08.16-.16.33-.26.49a6,6,0,0,1-.67,1,3.5,3.5,0,0,1-1,.82,2.87,2.87,0,0,1-.65.27,3.21,3.21,0,0,1-2-.15,2.29,2.29,0,0,1-.64-.39,1.62,1.62,0,0,1-.5-.77.7.7,0,0,1,0-.14s0-.09,0-.14V340l0-.14,0-.13s0-.07,0-.11a.93.93,0,0,1,.08-.2,3.53,3.53,0,0,1,.35-.55c.22-.29.43-.54.62-.8a12.28,12.28,0,0,0,1-1.65c.14-.29.28-.58.41-.89a6.21,6.21,0,0,1,.52-1,1.79,1.79,0,0,1,.54-.52,2.22,2.22,0,0,1,.62-.3,3.59,3.59,0,0,1,1.24-.14,4.93,4.93,0,0,1,.57.07l.27.05.12,0h0s.05,0-.14,0c-1,.47.2,1.61-.07,1.15,0,0,0,0,0,0l-.11,0-.27-.05a4.47,4.47,0,0,1-.57-.16,2.24,2.24,0,0,1-1.12-.81,1.62,1.62,0,0,1-.27-.73,2.05,2.05,0,0,1,0-.67,8.73,8.73,0,0,1,.25-1.06c.1-.33.18-.64.27-1,.17-.66.34-1.31.44-1.95a4.61,4.61,0,0,0,0-1.85,5.44,5.44,0,0,0-.74-1.72,8.75,8.75,0,0,0-1.23-1.51l-.72-.69a6.13,6.13,0,0,0-.77-.57c-.55-.33-1.17-.62-1.78-.91l-1.86-.85c-1.24-.57-2.49-1.13-3.74-1.67l-.94-.41c-.31-.14-.63-.27-1-.45a3.76,3.76,0,0,1-.44-.3,4.62,4.62,0,0,1-.41-.34c-.13-.11-.25-.24-.38-.37s-.24-.25-.35-.39a10.1,10.1,0,0,1-1.79-3.72,19.9,19.9,0,0,1-.6-4.06,19.48,19.48,0,0,0,.78,4,9.67,9.67,0,0,0,1.88,3.54,6.45,6.45,0,0,0,1.52,1.25,8.47,8.47,0,0,0,.92.39l1,.38c1.28.5,2.54,1,3.81,1.54l1.89.79a19.15,19.15,0,0,1,1.9.89,7.12,7.12,0,0,1,.89.63c.27.23.53.45.79.7a9.94,9.94,0,0,1,1.4,1.62,6.64,6.64,0,0,1,.92,2c.05.18.07.37.11.55s0,.38.05.57a9.69,9.69,0,0,1-.07,1.1c-.1.71-.25,1.39-.41,2.06-.07.33-.15.68-.24,1s-.16.66-.2.94a1.42,1.42,0,0,0,0,.35.5.5,0,0,0,.09.21,1.14,1.14,0,0,0,.54.34,2.58,2.58,0,0,0,.42.1l.23,0,.15,0,.12,0c-.23-.45,1,.74,0,1.22a.56.56,0,0,1-.27,0h-.09l-.14,0-.23,0-.45,0a2.11,2.11,0,0,0-.78.1,1.2,1.2,0,0,0-.3.15.55.55,0,0,0-.18.19,4.91,4.91,0,0,0-.37.81c-.13.32-.28.66-.43,1a14,14,0,0,1-1.1,1.86c-.21.29-.43.57-.61.83a2.47,2.47,0,0,0-.2.31v0h0v0h0l.06.06a.86.86,0,0,0,.24.13,1.59,1.59,0,0,0,.69.1,1.29,1.29,0,0,0,.63-.18,2.17,2.17,0,0,0,.56-.5,3.84,3.84,0,0,0,.48-.73q.11-.19.21-.42l.13-.26a.76.76,0,0,1,.11-.17c0-.73,2.49,1,1.4.75a2.31,2.31,0,0,1-.1.23l-.22.47c-.07.14-.14.28-.2.42a2.89,2.89,0,0,0-.21.73.09.09,0,0,0,0,.06.23.23,0,0,0,0-.08l-.06-.07,0,0s0,0,0,0,0,0,0,0a.86.86,0,0,0,.27,0,3.24,3.24,0,0,0,.39-.07,5.07,5.07,0,0,0,1.56-.73,6,6,0,0,0,2-2.91,7.72,7.72,0,0,0,.44-1.78,7.53,7.53,0,0,0,0-1.83c-.17-1.29-.44-2.66-.63-4s-.33-2.76-.42-4.15c0-.69-.07-1.39-.09-2.08s0-1.4-.07-2a2.18,2.18,0,0,0-.18-.7,4.17,4.17,0,0,0-.41-.73,5.47,5.47,0,0,0-1.19-1.27c-.47-.39-1.05-.76-1.65-1.32-.15-.14-.3-.3-.44-.46a5.08,5.08,0,0,1-.38-.53l-.17-.28a2,2,0,0,1-.14-.3,4.92,4.92,0,0,1-.23-.6,4.12,4.12,0,0,1-.16-.65,3.68,3.68,0,0,1,0-.74c0-.45.09-.76.14-1.09.08-.65.14-1.29.17-1.95s0-1.33,0-2c0-.34,0-.67,0-1a10.41,10.41,0,0,1,0-1.12,2.59,2.59,0,0,1,.18-.86,2.48,2.48,0,0,1,.51-.74,2.88,2.88,0,0,1,1.4-.81,8,8,0,0,1,2.4-.1c1.41.11,2.71.24,4,.26a34.67,34.67,0,0,0,4-.1,15.38,15.38,0,0,0,3.73-.79c.3-.1.58-.22.87-.34l.42-.2.2-.1.2-.12.41-.23.38-.25c.25-.16.53-.37.78-.56a9.19,9.19,0,0,0,2.49-2.62,4,4,0,0,0,.53-1.49,4.5,4.5,0,0,0-.13-1.63q-.11-.45-.24-1a10,10,0,0,1-.22-1.16,3.24,3.24,0,0,1,.14-1.56c.07-.14.13-.29.21-.43s.19-.25.29-.37a1.9,1.9,0,0,1,.4-.35c.12-.09.2-.13.26-.17.26-.16.51-.33.77-.52l.79-.6.35-.28c.1-.08.17-.17.17-.16l0,0,0,.09s0,0,0,0v0a0,0,0,0,0,0,0h0a.1.1,0,0,0,0,0s0,0,0,0a4.82,4.82,0,0,0-.46-.6,10.13,10.13,0,0,1-.72-.93,4.7,4.7,0,0,1-.57-1.24,4.27,4.27,0,0,1-.15-1.41,6.38,6.38,0,0,1,.71-2.39c.34-.69.73-1.29,1.05-1.85a4.53,4.53,0,0,0,.35-.71c0-.08,0-.15,0-.1a.64.64,0,0,0,.11.27c.06.06.08.06,0,0a1.23,1.23,0,0,0-.22-.05,3.81,3.81,0,0,0-.75,0,7.91,7.91,0,0,0-1.72.44,9.26,9.26,0,0,0-1.65.79,8.23,8.23,0,0,0-1.46,1.08,9.32,9.32,0,0,0-1.22,1.36,7.87,7.87,0,0,0-.92,1.53,3,3,0,0,0-.29,1.38,1.28,1.28,0,0,0,.06.23.61.61,0,0,0,.1.18.83.83,0,0,0,.37.27,6.14,6.14,0,0,0,.8.27,7.28,7.28,0,0,1,1.13.39,3.38,3.38,0,0,1,1.22.9,3.17,3.17,0,0,1,.67,1.38,5.3,5.3,0,0,1-.12,2.56,9.77,9.77,0,0,1-.85,2.13,12.18,12.18,0,0,1-1.19,1.88,13.62,13.62,0,0,1-1.47,1.67c-.27.26-.56.5-.85.74s-.59.45-.91.65-.64.39-1,.57-.67.34-1,.48a14.29,14.29,0,0,1-2.09.71,19.07,19.07,0,0,1-4.3.56,26.17,26.17,0,0,1-4.25-.28,28.13,28.13,0,0,1-4.14-.93,21.78,21.78,0,0,1-3.94-1.67c-1.24-.68-2.42-1.41-3.57-2.16s-2.3-1.48-3.45-2.25-2.28-1.57-3.37-2.45a31.36,31.36,0,0,1-5.79-6.06c-.82-1.12-1.59-2.28-2.32-3.44s-1.43-2.39-2.06-3.62c-.31-.61-.61-1.22-.94-1.77a12.41,12.41,0,0,0-1.13-1.59,12.9,12.9,0,0,0-1.35-1.42c-.49-.44-1-.85-1.54-1.24a25.41,25.41,0,0,0-7.23-3.42,57,57,0,0,0-7.94-1.76,15.1,15.1,0,0,0-2-.22,8.81,8.81,0,0,0-2,.14,11.49,11.49,0,0,0-3.73,1.45,15.08,15.08,0,0,0-3.1,2.6A19.45,19.45,0,0,0,202.53,275.63Z" transform="translate(-162.83 -267.54)"/><path class="cls-2" d="M250.69,318.39a4.78,4.78,0,0,1,1.43,1.71,4.23,4.23,0,0,1,.38,1.12,3.56,3.56,0,0,1,0,1.26,10.28,10.28,0,0,1-.8,2.17c-.31.66-.63,1.3-.94,1.94l-1.87,3.86c-.17.33-.34.66-.56,1a4.8,4.8,0,0,1-.86,1.1,3.9,3.9,0,0,1-1.33.76,5.37,5.37,0,0,1-1.37.27,4.76,4.76,0,0,1-1.43-.14,3.48,3.48,0,0,1-.8-.33,2.21,2.21,0,0,1-.8-.81,2,2,0,0,1-.21-.6,2.46,2.46,0,0,1,0-.53,3.14,3.14,0,0,1,.16-.83,5.59,5.59,0,0,1,.59-1.2l.07-.12,0,0,0,0,0,.07c-.1-.57-.18,1.65.82,1.5,1.61-.26,1.11-.81,1.2-.58,0,0,0,0,0-.07h0l-.11.26c-.08.2-.18.39-.28.59a5.25,5.25,0,0,1-.83,1.09,3.4,3.4,0,0,1-.58.47,3.09,3.09,0,0,1-.68.34,4,4,0,0,1-1.41.22,2.83,2.83,0,0,1-.78-.13l-.22-.08-.23-.12c-.08-.06-.16-.11-.25-.19l-.12-.13a1.75,1.75,0,0,1-.27-.55,1.7,1.7,0,0,1,0-.38l0-.16,0-.14c0-.09.06-.15.09-.22a3,3,0,0,1,.4-.6,18.18,18.18,0,0,1,1.59-1.58c.27-.24.55-.49.86-.72a4,4,0,0,1,1-.61,3.57,3.57,0,0,1,2.24,0,3.74,3.74,0,0,0-2,.6,3.4,3.4,0,0,0-.69.68c-.21.26-.42.54-.63.83l-.63.86c-.2.29-.41.57-.56.84a2.07,2.07,0,0,0-.15.33s0,0,0,0h0s0,0,0,0a.37.37,0,0,0-.05-.25l0-.05,0,0,0,0h.34a1.83,1.83,0,0,0,.69-.2,1.59,1.59,0,0,0,.5-.41,3.21,3.21,0,0,0,.4-.66,3.52,3.52,0,0,0,.16-.39l.08-.24,0,0a.36.36,0,0,1,0-.09c.09.23-.41-.33,1.21-.6,1-.14.92,2.09.81,1.52l0,.08,0,.07-.05.08-.06.12a4.48,4.48,0,0,0-.33.74,1,1,0,0,0,0,.23s0,0,0,0a.23.23,0,0,0,0-.09c-.05-.09-.07-.09,0-.07a.62.62,0,0,0,.2.07,2.22,2.22,0,0,0,.7.05,3,3,0,0,0,.75-.13,1.81,1.81,0,0,0,.54-.28,6.38,6.38,0,0,0,1-1.43c.69-1.23,1.44-2.51,2.23-3.72.4-.6.81-1.2,1.21-1.78l.57-.87a5.49,5.49,0,0,0,.46-.85,2.83,2.83,0,0,0,.2-.87,4.69,4.69,0,0,0-.08-1A5.92,5.92,0,0,0,250.69,318.39Z" transform="translate(-162.83 -267.54)"/><path class="cls-2" d="M205,283.13a6,6,0,0,1,1-1.18,5.8,5.8,0,0,1,1.26-.9,7,7,0,0,1,3-.92,3.91,3.91,0,0,1,1.72.3,6.65,6.65,0,0,1,1.42.87c.83.66,1.52,1.35,2.24,1.88a4.56,4.56,0,0,0,2.23,1,2.89,2.89,0,0,0,1,0,11.78,11.78,0,0,0,1.18-.34,6.53,6.53,0,0,1,1.67-.37,4.25,4.25,0,0,1,1.79.24,5,5,0,0,1,2.55,2l-.15.18a7.75,7.75,0,0,0-2.72-.53,3.43,3.43,0,0,0-1.13.17,9.49,9.49,0,0,0-1.14.51,6.52,6.52,0,0,1-1.61.57,3.69,3.69,0,0,1-1,.05,4.49,4.49,0,0,1-.94-.17,5.93,5.93,0,0,1-1.61-.75,8.64,8.64,0,0,1-1.31-1c-.79-.73-1.41-1.51-2.06-2.15a3.28,3.28,0,0,0-2.11-1.17,6.16,6.16,0,0,0-2.69.41,5.65,5.65,0,0,0-1.26.61,6.39,6.39,0,0,0-1.08.94Z" transform="translate(-162.83 -267.54)"/><path class="cls-2" d="M202.35,298.49a17.86,17.86,0,0,0,2.76,1.31c.48.17,1,.33,1.45.47a9.44,9.44,0,0,1,1.53.47,4.5,4.5,0,0,1,1.34,1,5.77,5.77,0,0,1,.93,1.38,6.73,6.73,0,0,1,.55,1.58,4.82,4.82,0,0,1,.11.86,5.86,5.86,0,0,1-.05.86,2.47,2.47,0,0,0,0,.65,1.9,1.9,0,0,0,.14.57,3.1,3.1,0,0,0,.72,1,7.51,7.51,0,0,0,2.38,1.46,12.39,12.39,0,0,0,1.37.5l.71.2c.24.07.48.12.71.17a11,11,0,0,0,2.84.27,6.34,6.34,0,0,0,2.6-.63c.09-.05.19-.09.28-.15l.27-.17a6.12,6.12,0,0,0,.5-.39,5.64,5.64,0,0,0,.88-.95,4,4,0,0,0,.86-2.14,1.22,1.22,0,0,0,0-.27v-.24a.72.72,0,0,0-.09-.27c-.09-.19-.58-.72-.88-1.28a6,6,0,0,1-.4-.85c0-.14-.11-.29-.15-.42l-.12-.41a8.61,8.61,0,0,1-.28-1.76,7,7,0,0,1,.15-1.77,5.88,5.88,0,0,1,.22-.83c.09-.26.18-.53.3-.8a4.91,4.91,0,0,1,1-1.52,4.38,4.38,0,0,1,.7-.59,5.74,5.74,0,0,1,.76-.41,6,6,0,0,0,1.29-.66,4.89,4.89,0,0,0,1-1.05l.22.1a4.49,4.49,0,0,1-.76,1.45,6.32,6.32,0,0,1-1.24,1.1,5,5,0,0,0-.53.44,3,3,0,0,0-.39.49,4.3,4.3,0,0,0-.48,1.19c0,.22-.1.45-.13.69a4.55,4.55,0,0,0-.09.68,5.14,5.14,0,0,0,.06,1.3,7.08,7.08,0,0,0,.33,1.28l.13.31c0,.11.09.21.13.3a3.85,3.85,0,0,0,.3.53,4.5,4.5,0,0,0,.37.49,6.58,6.58,0,0,1,.56.72,3,3,0,0,1,.44,1.18l0,.14v.38a2.78,2.78,0,0,1,0,.5,5.27,5.27,0,0,1-.48,1.91,6.78,6.78,0,0,1-1,1.56,8.32,8.32,0,0,1-1.31,1.21,5.58,5.58,0,0,1-.77.49l-.4.22c-.13.07-.27.12-.41.18l-.42.16-.43.12a6.31,6.31,0,0,1-.86.2c-.28.05-.57.07-.86.1l-.85,0a13.26,13.26,0,0,1-3.28-.48l-.78-.23c-.25-.08-.5-.16-.76-.26a14,14,0,0,1-1.5-.63,9.1,9.1,0,0,1-2.72-1.95,4.38,4.38,0,0,1-.93-1.56,3.63,3.63,0,0,1-.16-.93,3.94,3.94,0,0,1,.09-.89,3.44,3.44,0,0,0,.09-.68,3.8,3.8,0,0,0,0-.67,6.13,6.13,0,0,0-.37-1.38,4.5,4.5,0,0,0-.7-1.22,3.59,3.59,0,0,0-1-.92,10.08,10.08,0,0,0-1.39-.54,15.18,15.18,0,0,1-1.45-.59,18.1,18.1,0,0,1-2.7-1.57Z" transform="translate(-162.83 -267.54)"/></svg>